<svg id="SvgjsSvg1001" width="288" height="288" xmlns="http://www.w3.org/2000/svg" version="1.1" xmlns:xlink="http://www.w3.org/1999/xlink" xmlns:svgjs="http://svgjs.com/svgjs"><defs id="SvgjsDefs1002"></defs><g id="SvgjsG1008" transform="matrix(0.916700005531311,0,0,0.916700005531311,11.995199203491211,11.995199203491211)"><svg xmlns="http://www.w3.org/2000/svg" enable-background="new 0 0 477.867 477.867" viewBox="0 0 477.867 477.867" width="288" height="288"><path d="M341.333,85.333H51.2c-28.277,0-51.2,22.923-51.2,51.2v290.133c0,28.277,22.923,51.2,51.2,51.2h290.133
			c28.277,0,51.2-22.923,51.2-51.2V136.533C392.533,108.256,369.61,85.333,341.333,85.333z M358.4,426.667
			c0,9.426-7.641,17.067-17.067,17.067H51.2c-9.426,0-17.067-7.641-17.067-17.067V136.533c0-9.426,7.641-17.067,17.067-17.067
			h290.133c9.426,0,17.067,7.641,17.067,17.067V426.667z" fill="#ffffff" class="color000 svgShape"></path><path d="M426.667,0h-307.2c-28.277,0-51.2,22.923-51.2,51.2c0,9.426,7.641,17.067,17.067,17.067S102.4,60.626,102.4,51.2
			s7.641-17.067,17.067-17.067h307.2c9.426,0,17.067,7.641,17.067,17.067v307.2c0,9.426-7.641,17.067-17.067,17.067
			s-17.067,7.641-17.067,17.067s7.641,17.067,17.067,17.067c28.277,0,51.2-22.923,51.2-51.2V51.2
			C477.867,22.923,454.944,0,426.667,0z" fill="#ffffff" class="color000 svgShape"></path></svg></g></svg>